<svg width="1395" height="968" viewBox="0 0 1395 968" fill="none" xmlns="http://www.w3.org/2000/svg">
<path d="M1261.3 790.342C1248.97 785.152 1228.53 777.175 1216.17 773.519C1199.12 768.511 1188.91 774.414 1180.93 788.977C1174.65 800.238 1166.42 816.86 1159.8 832.611C1153.17 848.361 1146.15 865.798 1143.39 878.232C1139.61 894.562 1143.28 905.681 1156.98 914.226C1168.02 921.033 1189.55 930.087 1200.58 934.724C1211.6 939.361 1233.39 948.526 1245.71 951.546C1261.41 955.367 1271.92 950.21 1280.95 936.089C1287.91 925.421 1295.68 907.681 1302.08 892.455C1308.49 877.229 1315.45 856.989 1318.38 847.096C1323.43 830.683 1319.92 819.937 1304.79 811.102C1293.63 804.558 1273.64 795.531 1261.3 790.342ZM1304.23 827.859C1306.82 830.496 1308.91 840.953 1303.85 849.326C1295.71 851.774 1286.66 851.985 1279.02 850.316L1254.95 907.544L1276.22 916.488C1272.57 925.151 1268.28 931.687 1265.6 933.649L1227.01 917.418L1258.48 842.602L1231.18 831.119L1212.41 875.746C1203.02 898.06 1185.67 904.048 1169.4 897.203C1164.93 895.325 1159.64 892.482 1155.47 889.182C1154.58 885.411 1157.18 876.306 1161.44 865.433C1170 875.21 1183.44 883.645 1191.82 867.397L1209.49 825.394C1192.44 820.386 1181.65 829.135 1172.94 834.429C1177.24 824.191 1181.89 815.334 1184.81 809.144C1201.17 801.817 1215.83 801.493 1240.51 811.872L1275.68 826.668C1284.35 830.311 1294.07 830.694 1304.23 827.859Z" fill="#465C68"/>
<path d="M1067.43 348.152C1056.09 350.606 1037.6 355.11 1026.99 358.667C1012.39 363.595 1008.08 372.868 1009.66 387.186C1010.8 398.313 1013.23 414.216 1016.36 428.704C1019.49 443.191 1023.18 459.075 1027.41 469.281C1032.85 482.763 1040.99 488.838 1054.98 488.087C1066.22 487.427 1086.01 483.145 1096.16 480.952C1106.3 478.759 1126.34 474.425 1136.6 470.437C1149.65 465.339 1154.55 456.444 1153.93 441.918C1153.57 430.876 1150.26 414.405 1147.23 400.4C1144.2 386.396 1139.08 368.548 1136.23 360.064C1131.65 345.89 1123.8 340.004 1108.66 341.258C1097.48 342.159 1078.78 345.697 1067.43 348.152ZM1116.6 353.442C1119.76 354.022 1126.45 360.411 1127.02 368.881C1122.46 374.67 1116.13 379.323 1109.87 381.94L1121.26 434.578L1140.82 430.348C1142.54 438.316 1142.74 445.096 1141.82 447.824L1106.32 455.501L1091.44 386.686L1066.33 392.117L1075.2 433.164C1079.64 453.688 1070.3 466.577 1055.33 469.815C1051.22 470.702 1046.05 471.316 1041.44 471.049C1038.94 468.81 1036.25 461.051 1033.86 451.204C1044.81 453.892 1058.56 453.193 1056.42 437.479L1048.07 398.846C1033.46 403.774 1030.16 415.357 1026.6 423.456C1024.56 414.039 1023.46 405.432 1022.45 399.585C1030.43 386.232 1040.68 378.707 1063.38 373.799L1095.73 366.801C1103.7 365.078 1110.8 360.509 1116.6 353.442Z" fill="#465C68"/>
<path d="M709.496 31.3834C701.273 29.122 687.703 25.7672 679.589 24.4769C668.403 22.7187 662.441 27.2901 658.601 37.15C655.561 44.7834 651.733 55.9644 648.847 66.463C645.96 76.9616 642.959 88.5581 642.242 96.642C641.201 107.272 644.434 113.995 653.8 118.264C661.337 121.654 675.685 125.6 683.034 127.62C690.383 129.641 704.906 133.635 712.942 134.527C723.173 135.646 729.389 131.521 733.93 121.854C737.446 114.54 740.893 102.689 743.684 92.5407C746.474 82.3921 749.208 69.0283 750.24 62.5367C752.077 51.7494 748.971 45.2492 738.683 40.9144C731.097 37.6994 717.72 33.6447 709.496 31.3834ZM739.711 51.5485C741.57 53.0008 743.753 59.4354 741.242 65.1441C736.304 67.362 730.604 68.2414 725.639 67.8172L715.15 105.962L729.323 109.859C727.735 115.633 725.561 120.117 724.03 121.578L698.309 114.506L712.021 64.6373L693.824 59.6335L685.644 89.3795C681.555 104.252 671.087 109.467 660.238 106.484C657.264 105.666 653.686 104.306 650.777 102.565C649.906 100.255 650.794 94.2884 652.592 87.0662C658.803 92.5384 667.994 96.7595 671.948 85.8016L679.646 57.8053C668.461 56.0471 662.368 62.4645 657.298 66.5284C659.174 59.7043 661.383 53.7245 662.713 49.5732C672.45 43.5931 681.684 42.18 698.132 46.7027L721.579 53.15C727.353 54.7377 733.53 54.1777 739.711 51.5485Z" fill="#465C68"/>
<path d="M196.528 824.184C186.306 826.038 169.639 829.511 160.049 832.374C146.841 836.342 142.706 844.505 143.689 857.356C144.377 867.34 146.072 881.634 148.439 894.683C150.806 907.732 153.627 922.047 157.103 931.301C161.566 943.52 168.661 949.197 181.196 948.945C191.259 948.692 209.092 945.457 218.227 943.8C227.361 942.143 245.412 938.868 254.705 935.61C266.529 931.443 271.178 923.636 271.065 910.628C271.069 900.743 268.603 885.914 266.315 873.3C264.027 860.686 259.981 844.572 257.69 836.901C254.018 824.088 247.18 818.59 233.598 819.256C223.575 819.727 206.749 822.33 196.528 824.184ZM240.335 830.389C243.142 831.003 248.932 836.917 249.186 844.509C244.934 849.548 239.14 853.52 233.465 855.672L242.065 903.084L259.682 899.888C260.984 907.065 260.961 913.134 260.051 915.546L228.081 921.345L216.837 859.362L194.219 863.466L200.926 900.438C204.279 918.924 195.536 930.169 182.052 932.615C178.355 933.286 173.709 933.68 169.597 933.302C167.423 931.226 165.251 924.207 163.416 915.329C173.122 918.061 185.439 917.849 184.001 903.733L177.689 868.935C164.481 872.904 161.175 883.163 157.752 890.298C156.214 881.816 155.485 874.086 154.756 868.827C162.293 857.126 171.686 850.705 192.13 846.996L221.272 841.71C228.449 840.408 234.935 836.536 240.335 830.389Z" fill="#48BDA8" fill-opacity="0.26"/>
<path d="M201.298 103.195C190.32 109.819 172.617 121.139 162.811 128.649C149.316 139.023 148.128 150.254 154.901 164.647C160.076 175.862 168.302 191.608 176.759 205.623C185.215 219.637 194.751 234.912 202.821 244.062C213.331 256.2 224.007 259.635 238.356 253.844C249.853 249.137 269.006 237.58 278.816 231.66C288.626 225.741 308.013 214.043 317.303 206.206C329.115 196.211 331.052 185.165 325.213 170.208C320.88 158.804 311.53 142.78 303.355 129.233C295.181 115.685 283.442 98.8721 277.434 91.0272C267.576 77.8585 257.275 74.5158 241.9 81.2446C230.543 86.1856 212.276 96.5709 201.298 103.195ZM254.556 91.1314C258.064 90.6079 267.338 94.8889 270.962 103.535C268.268 111.215 263.327 118.338 257.725 123.312L288.45 174.231L307.37 162.814C312.021 170.522 314.658 177.533 314.666 180.715L280.331 201.433L240.163 134.865L215.871 149.523L239.831 189.23C251.811 209.084 246.66 225.893 232.179 234.631C228.208 237.027 223.021 239.52 218.112 240.889C214.693 239.447 209.108 232.303 203.095 222.867C215.491 221.76 229.606 216.111 221.753 200.457L199.203 163.086C185.708 173.459 186.396 186.744 185.578 196.478C180.082 187.368 175.849 178.77 172.7 173.024C176.261 156.219 184.279 144.69 206.235 131.441L237.534 112.555C245.241 107.904 251.024 100.591 254.556 91.1314Z" fill="#48BDA8" fill-opacity="0.26"/>
<path d="M660.551 637.019C645.887 645.868 622.24 660.988 609.141 671.02C591.115 684.876 589.528 699.878 598.576 719.103C605.487 734.085 616.476 755.117 627.772 773.837C639.068 792.557 651.805 812.96 662.585 825.182C676.624 841.395 690.884 845.984 710.05 838.249C725.408 831.961 750.991 816.523 764.095 808.616C777.199 800.709 803.094 785.084 815.504 774.616C831.282 761.265 833.869 746.51 826.07 726.532C820.283 711.298 807.793 689.894 796.873 671.799C785.954 653.703 770.275 631.245 762.249 620.766C749.081 603.176 735.322 598.711 714.784 607.699C699.615 614.299 675.214 628.171 660.551 637.019ZM731.69 620.905C736.375 620.206 748.763 625.924 753.604 637.473C750.006 647.731 743.405 657.247 735.923 663.89L776.964 731.905L802.235 716.655C808.448 726.951 811.971 736.316 811.982 740.566L766.119 768.241L712.464 679.322L680.016 698.901L712.021 751.94C728.023 778.46 721.143 800.912 701.799 812.585C696.495 815.785 689.567 819.115 683.01 820.943C678.443 819.018 670.982 809.475 662.951 796.871C679.508 795.392 698.362 787.846 687.874 766.937L657.752 717.018C639.726 730.874 640.645 748.62 639.553 761.621C632.211 749.453 626.557 737.969 622.351 730.293C627.107 707.846 637.817 692.445 667.145 674.749L708.952 649.522C719.248 643.309 726.972 633.54 731.69 620.905Z" fill="#48BDA8" fill-opacity="0.26"/>
<path d="M1264.41 83.3349C1254.28 75.4724 1237.35 63.0223 1226.82 56.5718C1212.29 47.7084 1201.38 50.6373 1190.38 62.132C1181.78 70.9926 1170.04 84.3302 1160 97.2596C1149.97 110.189 1139.14 124.579 1133.5 135.398C1125.96 149.57 1126.59 160.767 1137.15 172.074C1145.68 181.11 1163.35 194.828 1172.4 201.854C1181.45 208.88 1199.33 222.765 1209.99 228.617C1223.56 236.046 1234.56 233.883 1246.42 223.057C1255.51 214.914 1267.1 200.428 1276.8 187.929C1286.5 175.431 1297.97 158.433 1303.13 150.006C1311.88 136.073 1311.29 125.259 1299.49 113.33C1290.79 104.51 1274.53 91.1975 1264.41 83.3349ZM1294.81 128.695C1296.56 131.78 1295.9 141.974 1289.13 148.464C1281 148.71 1272.57 146.66 1265.92 143.221L1229.45 190.198L1246.91 203.748C1241.39 210.859 1235.79 215.841 1232.83 216.992L1201.15 192.401L1248.83 130.986L1226.41 113.589L1197.98 150.222C1183.76 168.538 1166.22 169.775 1152.86 159.403C1149.2 156.559 1145 152.615 1141.96 148.526C1142.08 144.818 1146.74 137.037 1153.38 128.035C1158.87 139.203 1169.22 150.344 1181 137.389L1207.77 102.91C1193.23 94.0471 1181.09 99.4655 1171.71 102.202C1178.23 93.7976 1184.73 86.7573 1188.96 81.7529C1205.93 79.0337 1219.57 82.3709 1239.82 98.096L1268.7 120.513C1275.81 126.033 1284.71 128.8 1294.81 128.695Z" fill="#48BDA8" fill-opacity="0.26"/>
<path d="M124.698 474.882C118.134 466.831 107.036 453.92 99.8936 446.909C90.0344 437.266 80.8893 437.593 70.1155 444.666C61.7084 450.096 50.0149 458.489 39.7365 466.87C29.4582 475.251 18.2918 484.641 11.8718 492.157C3.33283 501.972 1.7937 510.927 8.07397 521.777C13.1604 530.464 24.614 544.511 30.4805 551.706C36.3471 558.9 47.9404 573.119 55.2854 579.678C64.6492 588.014 73.7309 588.31 85.0634 581.921C93.7183 577.146 105.507 567.819 115.442 559.718C125.378 551.616 137.528 540.284 143.136 534.57C152.576 525.162 154.084 516.517 146.934 504.95C141.676 496.403 131.263 482.934 124.698 474.882ZM140.445 516.23C141.265 518.984 138.888 526.911 132.365 530.804C125.897 529.518 119.62 526.366 114.992 522.439L77.6473 552.889L88.9613 566.765C83.3083 571.374 77.9846 574.289 75.4335 574.658L54.9007 549.476L103.723 509.668L89.1961 491.852L60.0742 515.597C45.5133 527.47 31.4426 525.253 22.7825 514.633C20.4079 511.72 17.8173 507.844 16.1596 504.062C16.9265 501.155 22.0209 495.86 28.9047 489.962C31.2055 499.779 37.346 510.458 49.008 502.375L76.4168 480.026C66.5576 470.383 55.9789 472.449 48.0777 472.903C54.7587 467.455 61.1734 463.08 65.4244 459.899C79.3106 460.84 89.4729 465.958 102.603 482.061L121.32 505.016C125.929 510.669 132.454 514.475 140.445 516.23Z" fill="#465C68"/>
</svg>
