<svg width="60" height="60" viewBox="0 0 149 151" fill="none" xmlns="http://www.w3.org/2000/svg">
<path d="M74.4017 0.57402C61.58 0.57402 40.5743 1.11963 28.2982 2.48363C11.3845 4.39325 4.56444 13.3957 2.92763 29.2182C1.56362 41.4943 0.472412 59.2264 0.472412 75.5945C0.472412 91.9626 0.745215 109.968 2.92763 121.971C5.65565 137.793 13.0213 146.25 28.2982 148.705C40.5743 150.615 62.944 150.615 74.4017 150.615C85.8594 150.615 108.502 150.615 120.505 148.705C135.782 146.25 143.148 137.793 145.876 121.971C148.058 109.968 148.331 91.417 148.331 75.5945C148.331 59.772 146.967 39.3119 145.876 29.491C144.239 13.1229 137.146 4.93885 120.505 2.75644C108.229 1.11962 87.2234 0.57402 74.4017 0.57402ZM126.234 17.7605C129.508 19.1245 135.236 27.5814 133.872 36.8567C127.598 42.0399 119.687 45.5863 112.321 46.9503L112.321 106.421H134.418C134.418 115.424 133.054 122.789 131.417 125.517H91.3154L91.3154 47.7687H62.944V94.145C62.944 117.333 49.8495 129.064 32.9358 129.064C28.2982 129.064 22.5694 128.518 17.6589 127.154C15.4765 124.153 14.3853 115.151 14.1125 103.966C25.2974 109.422 40.3015 111.877 41.6655 94.4178V50.7695C24.7518 52.6792 18.4773 64.4096 12.7485 72.3209C12.7485 61.6816 13.5669 52.1336 13.8397 45.5863C25.5702 33.0374 38.3919 27.3086 64.0352 27.3086L100.591 27.3086C109.593 27.3086 118.323 24.035 126.234 17.7605Z" fill="#48BDA8"/>
</svg>
